<svg version="1.0" xmlns="http://www.w3.org/2000/svg"
 width="300.000000pt" height="320.000000pt" viewBox="0 0 300.000000 320.000000"
 preserveAspectRatio="xMidYMid meet">
<metadata>
Created by potrace 1.10, written by Peter Selinger 2001-2011
</metadata>
<g transform="translate(0.000000,320.000000) scale(0.100000,-0.100000)"
fill="#000000" stroke="none">
<path d="M1986 3132 c75 -50 217 -174 270 -238 23 -27 77 -103 121 -169 108
-165 165 -311 199 -512 25 -147 25 -150 21 -663 -4 -563 -6 -581 -72 -780 -89
-266 -294 -525 -565 -712 -24 -16 2 -17 488 -17 l512 -1 0 1565 0 1565 -517 0
-516 0 59 -38z"/>
<path d="M70 2986 l0 -125 653 -4 c703 -4 684 -2 825 -60 83 -33 155 -78 229
-141 192 -163 289 -350 314 -598 7 -76 9 -265 7 -540 -5 -389 -7 -429 -26
-499 -45 -167 -114 -288 -228 -403 -111 -112 -230 -183 -390 -233 l-89 -27
-517 -4 -518 -3 0 875 0 876 -125 0 -125 0 0 -1000 0 -1001 663 3 662 4 100
27 c201 54 390 169 535 324 177 189 275 400 300 644 13 126 13 883 0 1004 -28
261 -133 480 -324 671 -150 150 -318 249 -514 302 l-97 26 -667 4 -668 3 0
-125z"/>
<path d="M60 2480 l0 -130 265 0 265 0 0 -875 0 -875 344 0 c390 0 442 6 566
67 110 54 224 170 278 284 22 46 45 108 51 137 15 72 15 962 0 1034 -38 185
-198 372 -378 443 -109 42 -158 45 -789 45 l-602 0 0 -130z m1241 -134 c75
-17 134 -53 193 -115 94 -101 91 -81 94 -605 3 -446 2 -460 -19 -523 -29 -87
-112 -178 -201 -219 -63 -29 -63 -29 -295 -32 l-233 -4 0 756 0 756 203 0
c132 0 221 -5 258 -14z"/>
<path d="M1090 1605 l0 -505 70 0 c86 0 133 18 160 62 19 32 20 49 20 443 0
394 -1 411 -20 443 -27 44 -74 62 -160 62 l-70 0 0 -505z"/>
</g>
</svg>
